<?xml version="1.0" encoding="UTF-8" standalone="no"?><!-- Generator: Gravit.io --><svg xmlns="http://www.w3.org/2000/svg" xmlns:xlink="http://www.w3.org/1999/xlink" style="isolation:isolate" viewBox="0 0 1920 1080" width="1920pt" height="1080pt"><defs><clipPath id="_clipPath_IbPjNAX3BsZvsAxf59xIk4CW6STLqGpz"><rect width="1920" height="1080"/></clipPath></defs><g clip-path="url(#_clipPath_IbPjNAX3BsZvsAxf59xIk4CW6STLqGpz)"><linearGradient id="_lgradient_1" x1="0" y1="0.5" x2="1" y2="0.5" gradientTransform="matrix(1938,0,0,724.028,-13,-3)" gradientUnits="userSpaceOnUse"><stop offset="0%" stop-opacity="1" style="stop-color:rgb(255,119,0)"/><stop offset="100%" stop-opacity="1" style="stop-color:rgb(10,208,162)"/></linearGradient><path d=" M -6 367 Q 195.617 480.334 319 489 C 402.922 494.894 475.374 486.277 555 459 C 628.07 433.969 683.182 396.872 745 351 C 773.664 329.73 776.435 323.432 823 286 C 853.806 261.236 937.137 221.634 1006 229 C 1081.081 237.032 1137.124 280.263 1183 338 C 1245.96 417.238 1237.298 440.611 1308 617 C 1333.47 680.544 1388.396 722.254 1462 721 C 1507.062 720.232 1548.618 706.506 1577 672 C 1611.403 630.174 1621.334 583.558 1644 535 C 1671.284 476.548 1684.697 422.438 1718 367 C 1745.443 321.317 1764.715 277.046 1809 246 Q 1844.705 220.97 1924 203 L 1925 -3 L 3 -3 L -13 -3 L -6 367 Z " fill="url(#_lgradient_1)"/></g></svg>